<svg width="100%" height="100%" viewBox="0 0 512 512" xmlns="http://www.w3.org/2000/svg">
    <defs>
        <linearGradient id="green-gradient" x1="0" y1="0" x2="1" y2="0" gradientUnits="userSpaceOnUse" gradientTransform="matrix(3.30785e-14,540.212,-540.212,3.30785e-14,215.897,-2.43692)">
            <stop offset="0" stop-color="#aadc19"/>
            <stop offset="1" stop-color="#0f1d00"/>
        </linearGradient>
    </defs>

    <circle cx="256" cy="256" r="212.05" fill="#fff"/>
    <path d="M215.897,72.037L254.699,108.718L328.163,156.514L360.398,204.311L373.737,256.554L368.179,309.908L341.502,354.37L324.829,373.266L173.658,397.72L128.085,381.047L80.288,383.27L104.742,354.37L161.431,337.697L229.236,351.035L254.699,323.247L265.917,291.012L263.694,264.335L240.351,268.781L212.563,264.335L183.662,278.785L173.658,288.789L160.32,309.908L138.089,309.908L118.081,299.904L106.965,279.896L108.077,257.665L124.75,233.211L141.423,202.088L114.746,196.53L134.754,173.188L153.65,139.841L173.658,112.053L189.22,98.714L210.339,94.268L215.897,72.037Z" fill="#fff"/>
    <path d="M217.009,81.145C221.284,119.902 236.133,137.959 249.963,147.622C241.408,146.374 163.578,222.857 152.492,255.444C145.378,276.358 139.695,295.195 145.87,311.02L115.858,296.569L106.965,271.004L123.639,235.934L142.535,199.865L161.431,193.195L175.721,172.555L187.459,142.294L200.532,128.426L216.028,119.637L217.009,81.145Z" fill="#e7f2ec"/>
    <path d="M291.482,188.749C293.87,211.006 290.974,222.237 289.259,235.934L264.805,261.663L263.273,306.573L233.682,355.481L246.628,364.374C270.111,350.375 283.768,338.009 302.598,292.123C312.388,268.266 319.298,223.558 291.482,188.749Z" fill="#e7f2ec"/>
    <path d="M360.398,205.423C365.742,254.498 359.553,285.624 349.283,305.462C338.209,326.853 315.303,350.231 272.435,367.708L340.391,355.481L363.836,315.626L371.455,267.837L360.398,205.423Z" fill="#e7f2ec"/>
    <path d="M245.909,99.825C255.022,90.005 274.887,76.569 297.469,84.825L259.961,104.949L263.33,115.121C274.582,99.509 292.661,92.698 312.602,92.045C352.052,90.752 364.577,113.67 385.975,119.261L373.737,123.168L336.873,120.54L312.897,126.616L311.526,134.452C318.134,130.154 329.619,128.556 342.614,129.837C393.978,134.901 415.382,170.343 433.489,173.196L420.422,175.411L373.801,160.868L340.216,160.485L341.103,167.698C365.8,168.683 359.189,173.744 389.492,175.935L378.183,168.741C396.603,175.674 411.944,182.178 425.98,202.088C445.673,230.024 440.749,242.304 451.816,258.697L430.426,247.661L435.749,277.575L434.872,302.127L420.422,276.562L415.222,338.412L380.406,393.274L341.891,420.809L272.586,441.071L210.339,429.955L145.87,432.178L171.435,397.72L125.862,382.159L74.731,385.493L110.3,354.37C163.027,340.089 203.314,344.416 242.767,369.32L179.216,399.943C251.181,368.48 264.899,381.471 328.163,366.597L362.621,323.247L374.848,246.55L342.614,174.299L307.044,139.841L257.024,116.499L245.909,99.825Z" fill="#a8d62d"/>
    <path d="M211.451,103.16C188.006,101.802 169.212,127.614 169.212,127.614L115.858,196.53L130.308,199.865L168.101,186.526L181.439,162.072L189.22,136.507L204.782,125.391L217.009,123.168L211.451,103.16Z" fill="#a8d62d"/>
    <path d="M62.504,47.583L74.731,37.579L174.77,108.718L151.427,150.957L62.504,47.583Z" fill="#fdf06e"/>
    <path d="M62.504,52.029C73.694,43.233 92.244,51.052 84.505,62.754C89.667,61.193 104.667,63.381 102.519,75.371C109.487,66.562 124.453,73.417 119.913,88.212C127.732,79.356 137.509,84.347 137.212,97.386C146.933,92.58 156.899,104.082 152.539,116.499C159.413,104.458 170.571,112.81 169.212,122.056L173.658,108.718L71.396,36.467L62.504,52.029Z" fill="#efe68f"/>
    <path d="M68.301,54.322C71.366,49.906 79.558,54.049 85.846,52.029L85.846,65.367C94.01,65.343 100.987,70.596 101.408,79.818C102.063,80.499 116.489,86.361 114.746,92.045C125.068,80.985 139.247,90.199 136.977,99.825C144.919,98.967 153.017,106.833 152.539,116.499C149.995,127.554 151.117,136.091 159.208,139.841L153.65,147.622L68.301,54.322Z" fill="#e6c40e"/>
    <path d="M62.504,52.029C76.337,52.677 87.877,58.205 83.623,65.367C95.516,69.741 100.72,76.948 98.073,84.264C103.219,80.824 110.72,87.385 113.754,94.268C126.211,95.434 134.546,96.94 134.754,99.825C137.274,100.207 156.302,117.446 148.093,125.391C146.647,131.868 148.737,139.275 153.413,147.363L62.504,52.029Z" fill="#c0a721"/>
    <path d="M107.959,98.714C120.441,98.333 130.222,100.215 134.754,106.495C144.131,119.486 146.143,128.266 137.753,135.06L107.959,98.714Z" fill="#d6a707"/>
    <circle cx="207.005" cy="186.526" r="10.004" fill="#79981f"/>
    <path d="M137.265,265.361C139.807,266.803 140.154,271 138.039,274.728C135.924,278.456 132.143,280.312 129.601,278.87C127.059,277.428 126.712,273.23 128.827,269.502C130.942,265.774 134.723,263.919 137.265,265.361Z" fill="#79981f"/>
    <path d="M343.705,165.686C355.021,180.002 363.258,194.855 368.156,207.232C392.118,206.039 409.197,210.853 436.456,241.617C438.298,243.696 451.816,258.697 451.816,258.697C448.987,258.152 436.231,253.891 434.208,251.607C447.932,287.339 434.876,324.651 434.876,324.651C434.876,324.651 428.947,295.95 423.712,288.16C428.63,305.961 422.68,344.025 407.182,368.134C380.819,409.145 348.874,425.656 323.231,435.439C286.064,449.62 251.796,448.488 203.339,437.673C189.229,434.524 147.831,435.432 130.05,446.745C134.483,432.539 145.098,414.498 164.626,398.731C114.506,377.764 79.145,389.821 60.159,401.377C66.375,372.737 102.049,336.081 152.097,333.272C184.055,331.479 205.892,334.752 228.32,345.254C240.193,336.35 252.346,320.135 257.235,302.967C259.976,293.343 260.789,278.349 258.954,271.41C244.99,275.908 225.142,276.552 212.597,270.363L181.118,286.412C179.519,294.094 177.862,300.213 174.026,305.167C171.008,309.063 163.959,314.01 159.604,315.196C137.729,322.518 103.08,309.856 100.312,276.934C99.327,265.229 103.85,252.887 111.929,243.817L136.281,205.512C112.598,207.44 102.838,200.196 96.236,195.478C124.957,191.416 140.64,153.123 143.644,150.829L61.069,56.605C56.373,51.244 56.425,43.218 61.191,37.919C65.957,32.619 73.932,31.718 79.76,35.821L175.417,105.261C183.55,95.317 196.434,88.612 205.929,90.258C207.02,79.379 210.024,69.434 214.254,63.748C231.367,78.581 241.505,84.295 252.547,97.693C258.194,92.265 261.841,88.99 273.071,84.952C288.211,79.508 316.13,83.814 321.911,87.062C309.568,87.606 290.561,92.543 280.09,97.841C272.649,101.607 263.954,111.272 264.441,112.898C278.024,115.833 290.463,121.12 301.687,127.909C310.827,121.561 320.632,116.033 336.479,115.624C356.036,115.12 368.285,120.1 385.975,119.261C380.664,121.06 377.523,130.388 355.47,127.457C343.74,125.897 328.739,125.593 320.01,129.592C318.015,130.506 312.78,133.271 311.526,134.452C319.506,140.253 326.77,146.776 333.284,153.646C353.647,151.212 371.71,153.507 389.806,158.614C406.555,163.34 422.633,173.86 433.489,173.196C433.489,173.196 421.101,180.395 405.23,175.715C393.251,172.182 386.32,167.835 377.744,165.554C384.648,168.783 392.211,173.525 395.734,180.869C389.582,177.503 360.538,165.538 343.705,165.686ZM391.723,219.73C402.018,227.058 417.397,238.707 423.647,266.309C426.637,269.676 429.639,279.217 431.878,288.079C432.511,277.201 431.404,271.168 424.901,252.562C418.252,233.541 402.371,223.73 391.723,219.73ZM102.519,84.264L110.3,95.379C110.812,91.714 112.111,88.318 114.746,85.375C115.003,81.726 113.341,80.468 110.3,80.929C107.163,81.101 104.663,82.375 102.519,84.264ZM156.325,115.15C158.589,114.804 161.481,116.457 163.654,120.945C164.427,117.178 166.227,113.999 169.212,111.497C168.314,109.377 166.23,108.099 163.163,108.142C159.517,108.193 157.712,111.17 156.325,115.15ZM159.208,127.614C151.715,128.445 146.546,129.932 143.647,132.06L151.416,142.713C153.419,137.036 156.007,131.993 159.208,127.614ZM140.312,100.937L143.647,105.383C146.944,108.737 146.419,110.645 142.535,112.053C138.138,113.646 134.162,114.608 130.308,115.387L138.089,127.614C143.793,124.288 150.955,116.741 152.539,102.049C152.97,98.051 150.88,95.287 147.788,94.753C142.758,93.883 140.855,96.793 140.312,100.937ZM95.85,62.033C92.184,61.986 89.567,63.798 88.069,67.591L95.85,78.706C98.975,75.543 100.722,71.793 101.408,67.591C101.205,63.263 99.124,61.753 95.85,62.033ZM75.842,43.137C71.201,42.627 68.592,44.461 68.061,48.694L79.177,62.033C81.084,64.83 84.08,53.049 83.623,50.917C82.609,46.18 79.437,44.089 75.842,43.137ZM112.523,68.702C108.968,70.044 107.612,71.535 108.077,73.148C109.593,75.669 111.785,77.197 114.746,77.595C117.675,73.407 116.821,70.481 112.523,68.702ZM176.968,389.887C193.11,379.633 213.872,371.068 240.188,366.285C214.449,350.048 183.401,340.313 147.506,345.448C117.26,349.775 100.709,365.031 87.699,377.384C121.096,372.055 148.242,377.501 176.968,389.887ZM214.403,424.536C276.627,412.796 310.853,378.879 324.336,364.02C308.744,370.388 278.203,370.632 254.854,375.085C212.092,383.239 181.3,395.133 154.729,425.195C179.346,422.93 189.099,422.738 214.403,424.536ZM122.527,90.933C126.48,91.056 128.903,92.709 129.196,96.491C124.251,95.53 119.466,96.692 114.746,98.714L123.7,110.609C130.214,104.668 135.061,96.85 134.754,88.154C134.605,83.92 132.162,80.712 128.085,80.929C123.808,81.157 122.34,86.691 122.527,90.933ZM374.057,226.767C380.305,251.15 392.622,307.179 342.692,363.234C316.405,392.747 292.178,416.789 239.479,431.199C264.743,437.887 299.226,431.277 318.238,424.826C347.296,414.966 378.784,388.654 391.033,370.498C401.237,355.373 418.18,328.621 412.502,275.825C410.011,252.658 399.083,232.636 374.057,226.767ZM253.513,359.667C273.918,363.374 310.571,355.882 320.205,352.954C334.161,348.712 341.484,344.336 341.484,344.336C364.286,313.348 376.315,266.325 358.001,217.25C346.573,186.63 312.946,135.737 253.559,122.003L250.451,121.517L249.875,118.424C249.875,118.424 247.086,105.68 218.619,81.009C215.367,103.577 219.322,127.953 239.587,146.217C232.555,145.398 225.148,141.816 217.773,135.688C215.838,134.08 214.155,132.108 212.709,129.853C198.739,130.464 189.56,140.894 188.033,158.096C186.075,180.167 170.001,196.476 150.533,202.731C142.423,218.642 132.442,234.554 121.017,250.465C114.507,257.681 110.056,266.267 110.913,275.595C113.137,299.82 146.09,314.718 163.623,299.879C168.331,295.894 166.867,288.033 170.306,282.914C170.306,282.914 177.275,274.283 183.821,271.35C191.543,267.889 208.096,259.321 208.652,258.413L207.553,256.31C221.366,263.093 247.454,269.004 265.761,254.126C282.499,240.523 287.668,224.961 291.996,195.804C295.981,203.48 297.286,210.278 297.531,217.828C298.222,239.047 285.93,252.979 270.852,265.43C270.65,265.597 270.441,265.762 270.226,265.926C274.047,272.135 272.353,293.753 268.125,308.292C263.269,324.992 252.326,341.063 239.796,351.21C244.252,352.665 248.798,355.432 253.513,359.667ZM208.304,120.051C206.526,114.264 205.637,107.733 205.497,101.148C202.785,99.936 191.376,102.276 182.644,113.76C174.737,124.158 167.461,137.311 155.357,155.865C147.389,168.079 134.11,189.427 122.546,194.873C126.627,194.89 139.498,194.172 144.567,192.478C160.374,187.503 174.376,178.45 176.054,157.632C177.851,135.344 190.215,120.843 208.304,120.051Z" fill="url(#green-gradient)"/>
</svg>
