<svg width="100%" height="100%" viewBox="0 0 32 32" xmlns="http://www.w3.org/2000/svg">
    <circle cx="6.328" cy="11.265" r="0.515"/>
    <path d="M29.37,5.929C28.642,6.126 27.984,6.376 27.346,6.618C26.736,6.85 26.143,7.066 25.542,7.221C26.242,6.351 26.669,5.243 26.697,4.128C26.701,3.951 26.612,3.785 26.462,3.691C26.312,3.597 26.124,3.59 25.967,3.671C24.163,4.604 22.288,5.45 20.393,6.184C20.351,6.201 20.318,6.229 20.283,6.255C20.042,6.208 19.79,6.19 19.529,6.242C17.989,6.547 16.065,8.204 14.63,9.832C13.587,8.97 12.315,8.137 9.409,8.137C9.373,8.137 9.342,8.15 9.309,8.157C9.248,7.62 9.017,7.029 8.495,6.396C8.391,6.271 8.248,6.199 8.073,6.216C7.912,6.227 7.766,6.316 7.682,6.455C7.344,7.009 6.857,7.544 6.386,8.061C6.225,8.237 6.072,8.408 5.925,8.577C5.908,8.583 5.891,8.591 5.874,8.597L3.524,5.644C3.513,5.631 3.497,5.624 3.485,5.612C3.46,5.587 3.435,5.565 3.406,5.546C3.381,5.529 3.356,5.516 3.33,5.504C3.297,5.49 3.266,5.48 3.231,5.473C3.202,5.467 3.175,5.464 3.145,5.463C3.112,5.462 3.08,5.465 3.047,5.471C3.014,5.477 2.983,5.486 2.952,5.498C2.936,5.504 2.919,5.504 2.904,5.512C2.889,5.519 2.881,5.532 2.867,5.541C2.852,5.55 2.835,5.553 2.821,5.564C2.806,5.576 2.799,5.592 2.787,5.605C2.763,5.628 2.743,5.652 2.725,5.679C2.706,5.706 2.691,5.733 2.679,5.763C2.666,5.792 2.657,5.821 2.651,5.852C2.644,5.884 2.64,5.915 2.639,5.948C2.639,5.978 2.641,6.007 2.646,6.037C2.652,6.073 2.662,6.105 2.675,6.139C2.681,6.154 2.681,6.17 2.688,6.184L4.384,9.486C3.479,10.19 2.579,11.166 2.201,12.146C1.897,12.936 1.94,13.677 2.326,14.288C2.585,14.698 2.995,14.975 3.513,15.09C3.692,15.13 3.878,15.148 4.071,15.148C4.709,15.148 5.403,14.936 6.014,14.542C6.255,14.387 6.58,14.312 6.923,14.234C6.972,14.223 7.025,14.21 7.076,14.198C8.577,15.773 8.748,16.711 8.697,17.417C8.697,17.419 8.698,17.421 8.698,17.423C8.517,18.673 8.736,19.663 9.102,20.515C9.097,20.543 9.085,20.569 9.085,20.599L9.085,27.867C9.085,28.142 9.308,28.366 9.584,28.367L13.41,28.385L13.412,28.385C13.423,28.385 13.433,28.379 13.445,28.378L14.335,28.385L14.338,28.385C14.47,28.385 14.597,28.333 14.691,28.239C14.786,28.145 14.838,28.017 14.838,27.884C14.838,27.884 14.835,25.732 14.838,23.515C14.839,22.688 14.966,22.003 15.111,21.357C15.574,21.503 15.989,21.561 16.369,21.561C16.471,21.561 16.557,21.54 16.655,21.533C17.886,22.905 18.561,24.655 18.553,26.475L18.547,27.883C18.546,28.016 18.599,28.143 18.693,28.237C18.787,28.332 18.915,28.385 19.047,28.385L21.065,28.385C21.093,28.385 21.117,28.373 21.144,28.369C21.171,28.373 21.196,28.385 21.224,28.385L23.554,28.385C23.831,28.385 24.054,28.161 24.054,27.885L24.054,22.929C24.422,23.608 24.804,24.064 25.104,24.415C25.2,24.526 25.338,24.59 25.484,24.59C25.505,24.59 25.528,24.589 25.549,24.586C25.717,24.563 25.863,24.458 25.935,24.305C27.145,21.761 26.832,18.788 26.195,17.015C25.815,15.954 25.283,15.154 24.672,14.672C25.082,14.279 25.398,13.819 25.658,13.219C25.722,13.19 25.792,13.169 25.853,13.138C27.173,12.473 28.043,10.616 28.279,10.062C28.342,9.915 28.32,9.749 28.238,9.613C28.929,8.883 29.489,7.716 29.96,6.606C30.036,6.431 30.003,6.226 29.877,6.083C29.751,5.936 29.552,5.879 29.37,5.929ZM24.652,6.749C23.839,7.663 22.67,8.176 21.383,8.579C21.682,7.798 21.532,7.263 21.36,6.965C21.344,6.937 21.316,6.918 21.298,6.891C22.743,6.314 24.178,5.684 25.575,4.991C25.412,5.64 25.093,6.253 24.652,6.749ZM21.478,11.788C21.364,12.113 21.032,12.411 20.672,12.347C20.19,12.215 19.688,12.029 19.18,11.811C19.237,11.726 19.301,11.633 19.356,11.552C19.604,11.184 19.827,10.863 20.044,10.568C20.386,10.683 20.732,10.775 21.084,10.846C21.629,11.149 21.543,11.604 21.478,11.788ZM20.538,14.336C20.467,14.508 20.184,15.056 19.441,14.918C18.87,14.759 18.193,14.532 17.353,14.245C17.83,13.686 18.242,13.15 18.6,12.646C19.167,12.899 19.738,13.106 20.308,13.268C20.661,13.524 20.678,13.996 20.538,14.336ZM13.988,10.598C13.532,11.173 13.163,11.711 12.915,12.154C12.348,11.79 11.83,11.31 11.291,10.799C10.679,10.219 10.039,9.627 9.246,9.104C9.297,9.122 9.351,9.137 9.409,9.137C11.981,9.137 13.05,9.825 13.988,10.598ZM10.853,23.68C10.968,23.972 11.088,24.636 11.195,25.365L10.085,25.366L10.085,22.284C10.387,22.76 10.67,23.214 10.853,23.68ZM10.085,26.366L11.331,26.365C11.377,26.733 11.416,27.077 11.448,27.375L10.085,27.369L10.085,26.366ZM13.837,26.364C13.837,26.77 13.837,27.122 13.837,27.381L12.454,27.37C12.426,27.107 12.387,26.754 12.339,26.365L13.837,26.364ZM15.329,20.375C15.434,19.893 15.522,19.415 15.522,18.912C15.522,18.636 15.298,18.412 15.022,18.412C14.746,18.412 14.522,18.636 14.522,18.912C14.522,19.487 14.39,20.045 14.239,20.69C14.051,21.484 13.839,22.384 13.838,23.513C13.838,24.153 13.837,24.785 13.837,25.364L12.206,25.365C12.086,24.53 11.939,23.711 11.784,23.314C11.556,22.736 11.215,22.197 10.886,21.677C10.163,20.533 9.414,19.35 9.69,17.528C9.691,17.522 9.688,17.516 9.689,17.51C9.69,17.503 9.694,17.497 9.695,17.489C9.754,16.67 9.597,15.524 8.093,13.829C8.612,13.537 9.088,13.034 9.323,12.045C9.387,11.776 9.22,11.507 8.952,11.443C8.687,11.376 8.414,11.545 8.35,11.814C8.082,12.944 7.502,13.076 6.702,13.259C6.289,13.353 5.861,13.45 5.472,13.702C4.914,14.062 4.233,14.227 3.729,14.113C3.474,14.058 3.286,13.936 3.171,13.755C2.955,13.411 2.943,13.003 3.134,12.507C3.674,11.105 5.546,9.704 6.355,9.478C6.37,9.474 6.381,9.463 6.395,9.458C6.427,9.446 6.455,9.431 6.484,9.412C6.514,9.394 6.54,9.374 6.564,9.35C6.575,9.339 6.59,9.334 6.6,9.322C6.764,9.131 6.942,8.935 7.126,8.734C7.46,8.367 7.801,7.992 8.107,7.595C8.464,8.266 8.407,8.883 7.943,9.535C7.783,9.76 7.835,10.072 8.06,10.232C8.148,10.295 8.25,10.325 8.35,10.325C8.506,10.325 8.66,10.252 8.757,10.115C8.779,10.085 8.798,10.05 8.818,10.019C9.489,10.48 10.056,11.007 10.602,11.524C11.228,12.118 11.827,12.675 12.544,13.103C12.384,13.852 12.53,14.663 13.358,15.156C13.438,15.204 13.526,15.226 13.614,15.226C13.784,15.226 13.95,15.14 14.043,14.982C14.185,14.745 14.107,14.438 13.87,14.297C13.211,13.904 13.543,13.097 13.718,12.766C14.697,10.892 17.842,7.595 19.722,7.223C20.057,7.158 20.375,7.256 20.495,7.465C20.665,7.76 20.541,8.425 19.681,9.408C19.625,9.473 19.569,9.555 19.513,9.623C19.495,9.641 19.482,9.664 19.466,9.684C19.163,10.066 18.864,10.494 18.527,10.994C17.895,11.933 17.179,12.996 16.121,14.138C16.12,14.138 16.12,14.139 16.119,14.14C16.096,14.165 16.082,14.199 16.065,14.229C16.048,14.257 16.026,14.283 16.016,14.313C16.015,14.314 16.015,14.314 16.014,14.315C16.009,14.331 16.012,14.347 16.008,14.362C15.997,14.41 15.986,14.457 15.989,14.505C15.991,14.534 16.002,14.56 16.009,14.588C16.016,14.623 16.021,14.658 16.036,14.69C16.055,14.73 16.085,14.763 16.113,14.797C16.126,14.812 16.132,14.83 16.147,14.844C16.148,14.844 16.149,14.845 16.15,14.846C16.171,14.865 16.199,14.875 16.223,14.891C16.256,14.912 16.288,14.937 16.324,14.949C16.324,14.95 16.324,14.95 16.325,14.95L16.658,15.064C17.689,15.418 18.518,15.701 19.232,15.896C19.235,15.897 19.237,15.899 19.24,15.899C19.243,15.9 19.245,15.9 19.248,15.9C19.937,16.087 20.52,16.191 21.073,16.191C21.655,16.191 22.207,16.073 22.816,15.823C22.907,15.962 22.988,16.106 23.052,16.259C23.659,17.689 23.389,19.413 23.193,20.672C23.115,21.166 23.054,21.556 23.054,21.866L23.054,25.366L21.678,25.366C21.511,23.49 20.892,21.948 19.82,20.784C19.339,20.261 18.81,19.63 18.524,18.919C18.421,18.662 18.13,18.54 17.874,18.641C17.618,18.744 17.493,19.036 17.596,19.292C17.731,19.628 17.911,19.936 18.106,20.23C17.967,20.263 17.828,20.297 17.694,20.333C16.975,20.523 16.291,20.703 15.329,20.375ZM17.794,21.336C17.845,21.323 17.901,21.312 17.951,21.299C18.237,21.223 18.511,21.158 18.784,21.122C18.885,21.238 18.985,21.354 19.084,21.461C19.997,22.454 20.504,23.751 20.66,25.366L19.474,25.366C19.283,23.905 18.709,22.517 17.794,21.336ZM19.548,26.366L20.723,26.366C20.723,26.405 20.73,26.437 20.73,26.475L20.726,27.385L19.549,27.385L19.553,26.479C19.553,26.441 19.549,26.404 19.548,26.366ZM21.726,27.385L21.73,26.479C21.73,26.441 21.727,26.405 21.727,26.366L23.054,26.366L23.054,27.385L21.726,27.385ZM25.253,17.352C25.762,18.768 26.043,21.033 25.341,23.112C24.946,22.562 24.529,21.786 24.222,20.55C24.42,19.258 24.643,17.448 23.973,15.869C23.901,15.697 23.814,15.532 23.717,15.373C23.756,15.351 23.79,15.327 23.828,15.304C24.363,15.594 24.892,16.344 25.253,17.352ZM23.074,14.598C22.994,14.64 22.918,14.678 22.841,14.716C22.796,14.728 22.755,14.753 22.713,14.779C22.165,15.038 21.695,15.17 21.185,15.189C21.293,15.048 21.389,14.894 21.461,14.718C21.622,14.33 21.66,13.927 21.589,13.556C22.122,13.643 22.646,13.703 23.144,13.703C23.541,13.703 23.918,13.666 24.283,13.61C23.986,14.002 23.619,14.307 23.074,14.598ZM25.403,12.245C24.663,12.618 23.51,12.785 22.146,12.627C22.257,12.475 22.355,12.309 22.421,12.12C22.555,11.741 22.557,11.367 22.455,11.027C22.689,11.041 22.923,11.054 23.154,11.054C24.36,11.054 25.497,10.865 26.401,10.597C26.425,10.595 26.448,10.601 26.471,10.597C26.645,10.559 26.803,10.528 26.952,10.5C26.538,11.24 25.991,11.949 25.403,12.245ZM27.073,9.277C25.873,9.881 23.223,10.372 20.872,9.773C22.072,9.437 23.221,9.051 24.197,8.422C25.465,8.39 26.555,7.987 27.701,7.553C27.991,7.443 28.285,7.331 28.585,7.224C28.191,8.033 27.633,8.995 27.073,9.277Z" fill-rule="nonzero"/>
</svg>
