<svg width="100%" height="100%" viewBox="0 0 32 32" xmlns="http://www.w3.org/2000/svg">
    <path d="M25.444,12.64C24.387,11.835 23.037,11.514 21.91,11.603C21.843,11.608 21.781,11.627 21.725,11.655C21.427,11.514 21.062,11.376 20.615,11.242C20.556,11.083 20.443,10.908 20.238,10.739C19.461,10.098 17.5,9.742 16.398,9.98C16.185,8.391 14.897,7.236 13.833,6.298C13.559,6.056 13.295,5.822 13.063,5.594C11.961,4.51 10.807,4.081 9.695,4.33C9.565,4.101 9.41,3.867 9.212,3.627C9.109,3.502 8.948,3.43 8.791,3.446C8.629,3.458 8.484,3.547 8.4,3.685L8.2,4.016C7.72,4.806 7.181,5.69 6.635,6.353C5.311,6.654 3.143,8.536 2.358,10.136C1.779,11.316 2.01,12.096 2.305,12.541C2.738,13.195 3.45,13.475 4.224,13.475C4.957,13.475 5.745,13.224 6.402,12.8C6.687,12.616 7.063,12.531 7.46,12.44C7.529,12.425 7.602,12.407 7.673,12.39C9.425,14.219 9.625,15.314 9.566,16.139C9.566,16.141 9.567,16.142 9.567,16.145C9.36,17.562 9.612,18.684 10.029,19.65C10.022,19.685 10.008,19.718 10.008,19.755L10.008,28.032C10.008,28.308 10.231,28.53 10.505,28.532L14.857,28.556L14.86,28.556C14.865,28.556 14.869,28.553 14.874,28.553L15.153,28.556L15.158,28.556C15.29,28.556 15.416,28.504 15.509,28.411C15.604,28.317 15.658,28.189 15.658,28.057L15.663,23.076C15.664,22.095 15.82,21.289 15.994,20.527C16.574,20.712 17.134,20.781 17.666,20.781C18.192,20.781 18.687,20.712 19.155,20.626L19.212,20.69C20.672,22.277 21.471,24.322 21.462,26.448L21.455,28.05C21.454,28.183 21.506,28.31 21.6,28.405C21.694,28.5 21.822,28.553 21.955,28.553L26.416,28.553C26.692,28.553 26.916,28.329 26.916,28.053L26.916,22.128C27.369,23.038 27.857,23.616 28.232,24.056C28.328,24.168 28.467,24.231 28.613,24.231C28.634,24.231 28.657,24.23 28.678,24.227C28.846,24.205 28.992,24.099 29.064,23.946C30.84,20.211 29.882,15.122 27.873,13.236C27.114,12.526 26.264,12.321 25.444,12.64ZM25.908,14.787C26.606,16.433 26.297,18.408 26.072,19.849C25.988,20.387 25.916,20.851 25.916,21.199L25.916,25.254L24.544,25.254C24.303,23.314 23.466,21.485 22.112,20.014C21.561,19.414 20.954,18.69 20.623,17.869C20.519,17.612 20.224,17.489 19.972,17.592C19.715,17.695 19.591,17.986 19.695,18.242C19.858,18.647 20.077,19.018 20.315,19.369C20.125,19.406 19.933,19.446 19.734,19.489C19.376,19.567 19.002,19.644 18.617,19.701L18.617,15.818L21.559,15.997C21.569,15.998 21.58,15.998 21.589,15.998C21.589,15.998 21.589,15.998 21.59,15.998C21.59,15.998 21.59,15.998 21.59,15.998C21.654,15.998 21.715,15.985 21.772,15.963C21.793,15.954 21.81,15.939 21.829,15.928C21.862,15.909 21.897,15.892 21.925,15.867C21.945,15.849 21.957,15.825 21.974,15.805C21.996,15.778 22.019,15.753 22.035,15.722C22.046,15.699 22.05,15.672 22.058,15.646C22.068,15.616 22.083,15.588 22.086,15.555L22.423,12.599C23.735,12.647 25.276,13.298 25.908,14.787ZM13.42,27.537C13.412,27.21 13.397,26.753 13.373,26.254L14.66,26.254L14.659,27.551L13.42,27.537ZM15.942,17.335C15.666,17.335 15.442,17.558 15.442,17.835C15.442,18.499 15.291,19.138 15.117,19.878C14.905,20.777 14.665,21.797 14.663,23.075L14.661,25.254L13.312,25.254C13.24,24.288 13.128,23.335 12.947,22.873C12.69,22.221 12.321,21.638 11.93,21.02C11.099,19.707 10.24,18.349 10.559,16.249C10.56,16.243 10.557,16.237 10.558,16.23C10.559,16.223 10.563,16.217 10.564,16.209C10.599,15.719 10.563,15.123 10.272,14.387L13.437,12.087L13.246,14.987C13.246,14.988 13.246,14.988 13.246,14.989C13.246,14.99 13.246,14.99 13.246,14.99C13.244,15.011 13.253,15.029 13.254,15.049C13.257,15.096 13.258,15.143 13.273,15.186C13.279,15.202 13.291,15.214 13.298,15.229C13.318,15.272 13.339,15.315 13.37,15.351C13.386,15.369 13.408,15.379 13.426,15.395C13.457,15.421 13.485,15.449 13.521,15.468C13.545,15.479 13.574,15.481 13.599,15.489C13.636,15.5 13.671,15.517 13.711,15.519C13.713,15.52 13.715,15.519 13.717,15.52L17.617,15.757L17.617,19.773C17.164,19.768 16.698,19.703 16.221,19.541C16.345,18.976 16.442,18.421 16.442,17.835C16.442,17.558 16.218,17.335 15.942,17.335ZM16.528,14.689L14.277,14.552L14.49,11.323C14.747,11.316 15.067,11.324 15.44,11.35C15.429,12.987 15.883,14.088 16.528,14.689ZM20.542,12.268C20.963,12.403 21.239,12.52 21.415,12.613L21.146,14.97L19.056,14.843C19.698,14.394 20.259,13.552 20.542,12.268ZM18.321,11.021C19.215,11.205 19.626,11.488 19.671,11.523C19.67,11.531 19.672,11.539 19.671,11.547C19.67,11.554 19.665,11.558 19.665,11.564C19.406,13.426 18.519,14.317 17.776,14.251C17.047,14.178 16.328,13.126 16.44,11.002C16.647,10.898 17.367,10.826 18.321,11.021ZM12.362,6.307C12.605,6.547 12.883,6.792 13.172,7.048C14.215,7.968 15.392,9.013 15.436,10.352C15.061,10.328 14.735,10.319 14.464,10.327C13.73,9.898 13.082,9.292 12.401,8.645C11.694,7.976 10.955,7.291 10.033,6.69C10.152,6.269 10.181,5.798 10.066,5.285C10.797,5.187 11.566,5.525 12.362,6.307ZM3.139,11.989C2.919,11.658 2.958,11.183 3.256,10.576C3.381,10.322 3.553,10.066 3.741,9.812L5.401,12.204C4.475,12.617 3.51,12.549 3.139,11.989ZM9.772,9.397C9.5,9.33 9.233,9.499 9.169,9.767C8.853,11.098 8.14,11.26 7.239,11.465C6.925,11.537 6.605,11.614 6.296,11.74L4.44,9.063C4.431,9.05 4.417,9.044 4.407,9.032C5.328,8.082 6.446,7.33 6.96,7.293C6.985,7.291 7.005,7.279 7.029,7.274C7.069,7.265 7.11,7.259 7.148,7.24C7.207,7.21 7.26,7.17 7.303,7.12C7.303,7.12 7.304,7.119 7.304,7.119C7.856,6.475 8.38,5.642 8.855,4.863C9.3,5.67 9.245,6.424 8.694,7.197C8.534,7.422 8.586,7.734 8.811,7.894C8.899,7.957 9,7.987 9.101,7.987C9.257,7.987 9.411,7.914 9.508,7.777C9.545,7.725 9.578,7.666 9.614,7.611C10.407,8.147 11.074,8.765 11.713,9.372C12.28,9.909 12.824,10.423 13.431,10.855L9.81,13.487C9.541,13.047 9.178,12.563 8.702,12.033C9.313,11.717 9.866,11.158 10.142,10C10.207,9.731 10.041,9.461 9.772,9.397ZM11.085,21.556C11.45,22.131 11.794,22.675 12.015,23.238C12.144,23.566 12.24,24.357 12.308,25.254L11.008,25.254L11.008,21.432C11.034,21.473 11.06,21.515 11.085,21.556ZM11.008,26.254L12.37,26.254C12.393,26.703 12.41,27.143 12.42,27.543L11.008,27.535L11.008,26.254ZM20.271,20.399C20.532,20.344 20.78,20.301 21.009,20.275C21.132,20.418 21.255,20.559 21.375,20.69C22.559,21.976 23.299,23.565 23.536,25.254L22.381,25.254C22.16,23.478 21.432,21.8 20.271,20.399ZM22.454,26.254L23.617,26.254C23.618,26.319 23.626,26.383 23.625,26.448L23.621,27.553L22.457,27.553L22.462,26.452C22.463,26.386 22.455,26.32 22.454,26.254ZM24.621,27.553L24.625,26.452C24.626,26.386 24.618,26.32 24.617,26.254L25.916,26.254L25.916,27.553L24.621,27.553ZM28.473,22.766C27.995,22.125 27.478,21.218 27.105,19.708C27.33,18.243 27.587,16.185 26.828,14.396C26.687,14.064 26.502,13.775 26.3,13.505C26.549,13.531 26.848,13.647 27.188,13.966C28.602,15.293 29.707,19.318 28.473,22.766Z" fill-rule="nonzero"/>
    <path d="M6.798,8.609C6.522,8.609 6.281,8.849 6.281,9.126C6.281,9.402 6.522,9.642 6.798,9.642C7.075,9.642 7.315,9.402 7.315,9.126C7.315,8.849 7.075,8.609 6.798,8.609Z" fill-rule="nonzero"/>
</svg>
