<svg width="100%" height="100%" viewBox="0 0 32 32" xmlns="http://www.w3.org/2000/svg">
    <path d="M2.013,5.166C2.017,5.197 2.02,5.228 2.031,5.258C2.041,5.287 2.057,5.313 2.073,5.34C2.09,5.37 2.106,5.399 2.13,5.426C2.136,5.433 2.138,5.443 2.146,5.45L8.548,11.845C8.419,12.698 8.573,13.581 9.04,14.387C9.103,14.496 9.167,14.592 9.233,14.678C11.345,17.404 14.25,18.876 16.288,19.752C16.896,20.614 17.546,21.308 17.841,21.323C17.849,21.324 17.858,21.324 17.865,21.324C18.08,21.324 18.276,21.184 18.343,20.978C18.384,20.854 18.41,20.739 18.447,20.618C19.087,20.864 19.67,21.091 20.164,21.315L20.642,21.528C21.11,21.737 21.58,21.946 22.049,22.185C22.504,22.417 22.914,22.679 23.431,23.139C22.953,24.207 22.806,25.798 23.421,27.116C23.506,27.297 23.686,27.404 23.874,27.404C23.939,27.404 24.004,27.391 24.067,27.365C25.364,26.823 26.387,25.778 27.055,24.359C27.908,24.026 28.7,23.421 29.287,22.962C29.473,22.816 29.642,22.683 29.79,22.578C29.907,22.495 29.984,22.364 29.997,22.22C30.012,22.077 29.964,21.934 29.865,21.829C28.909,20.807 27.487,20.369 26.067,20.622C25.127,18.528 22.682,14.232 20.342,12.078C18.901,10.752 16.843,9.576 14.225,8.583C12.966,8.105 11.615,8.253 10.516,8.933L2.74,4.658C2.731,4.653 2.721,4.653 2.711,4.649C2.679,4.634 2.647,4.627 2.613,4.619C2.583,4.612 2.555,4.603 2.525,4.602C2.492,4.6 2.46,4.606 2.427,4.611C2.396,4.615 2.367,4.618 2.338,4.628C2.308,4.638 2.282,4.655 2.255,4.67C2.225,4.687 2.196,4.704 2.17,4.727C2.162,4.733 2.153,4.736 2.146,4.743C2.129,4.76 2.122,4.781 2.108,4.799C2.093,4.819 2.073,4.833 2.061,4.855C2.056,4.865 2.056,4.875 2.052,4.885C2.037,4.915 2.03,4.947 2.022,4.979C2.014,5.01 2.005,5.04 2.004,5.072C2.002,5.103 2.008,5.134 2.013,5.166ZM5.345,7.232L9.683,9.617C9.615,9.687 9.542,9.749 9.478,9.825C9.228,10.119 9.034,10.435 8.879,10.762L5.345,7.232ZM13.869,9.518C16.368,10.466 18.318,11.575 19.664,12.814C22.044,15.004 24.552,19.55 25.306,21.385C25.311,21.398 25.325,21.404 25.331,21.416C25.367,21.487 25.415,21.546 25.476,21.591C25.487,21.599 25.494,21.609 25.505,21.616C25.578,21.662 25.66,21.686 25.748,21.689C25.756,21.689 25.761,21.695 25.769,21.695C25.791,21.695 25.813,21.685 25.836,21.682C25.859,21.679 25.881,21.683 25.904,21.676C26.907,21.393 27.937,21.573 28.714,22.139C28.699,22.151 28.686,22.163 28.671,22.174C28.063,22.649 27.307,23.241 26.542,23.495C26.536,23.497 26.532,23.501 26.527,23.504C26.502,23.513 26.482,23.529 26.459,23.542C26.425,23.561 26.39,23.578 26.362,23.603C26.346,23.618 26.337,23.638 26.323,23.654C26.295,23.687 26.267,23.72 26.248,23.759C26.247,23.763 26.243,23.765 26.241,23.769C25.755,24.883 25.053,25.704 24.15,26.214C23.852,25.159 24.067,23.967 24.479,23.279C24.487,23.265 24.487,23.25 24.494,23.236C24.508,23.206 24.518,23.177 24.526,23.146C24.534,23.114 24.541,23.083 24.542,23.05C24.544,23.019 24.541,22.989 24.537,22.958C24.533,22.926 24.527,22.895 24.517,22.865C24.507,22.835 24.493,22.809 24.478,22.782C24.461,22.751 24.442,22.723 24.418,22.696C24.409,22.686 24.405,22.673 24.395,22.663C23.65,21.948 23.1,21.598 22.504,21.295C22.02,21.048 21.533,20.831 21.049,20.615L20.577,20.404C20.056,20.167 19.439,19.928 18.758,19.666L18.696,19.642C18.861,18.844 18.919,18.123 18.843,17.503C18.81,17.227 18.556,17.028 18.286,17.067C18.012,17.1 17.817,17.349 17.851,17.624C17.922,18.214 17.85,18.932 17.651,19.751C17.648,19.758 17.642,19.762 17.64,19.769C17.631,19.792 17.633,19.816 17.627,19.839C17.049,19.144 16.193,17.968 15.981,17.037C15.919,16.769 15.659,16.594 15.382,16.661C15.113,16.721 14.944,16.99 15.006,17.259C15.07,17.543 15.203,17.878 15.375,18.23C13.571,17.344 11.584,16.08 10.024,14.066C9.984,14.014 9.944,13.955 9.905,13.886C9.138,12.562 9.575,11.255 10.239,10.472C11.15,9.401 12.575,9.026 13.869,9.518Z" fill-rule="nonzero"/>
    <path d="M13.392,11.156C13.065,11.156 12.8,11.422 12.8,11.749C12.8,12.075 13.065,12.341 13.392,12.341C13.718,12.341 13.983,12.075 13.983,11.749C13.983,11.422 13.718,11.156 13.392,11.156Z" fill-rule="nonzero"/>
</svg>
