<svg width="100%" height="100%" viewBox="0 0 32 32" xmlns="http://www.w3.org/2000/svg">
    <circle cx="6.328" cy="11.265" r="0.515"/>
    <path d="M29.37,5.929C28.643,6.126 27.984,6.376 27.347,6.618C26.736,6.85 26.142,7.067 25.54,7.222C26.242,6.352 26.669,5.244 26.697,4.128C26.701,3.951 26.612,3.785 26.463,3.691C26.312,3.597 26.125,3.59 25.968,3.671C24.163,4.604 22.288,5.45 20.393,6.184C20.351,6.201 20.318,6.229 20.283,6.255C20.042,6.208 19.79,6.19 19.529,6.242C17.99,6.547 16.066,8.203 14.63,9.832C13.587,8.971 12.315,8.137 9.408,8.137C9.373,8.137 9.342,8.15 9.309,8.157C9.248,7.62 9.017,7.029 8.495,6.396C8.391,6.271 8.232,6.199 8.074,6.216C7.912,6.227 7.766,6.316 7.683,6.454C7.344,7.011 6.854,7.547 6.382,8.065C6.222,8.24 6.071,8.41 5.924,8.577C4.772,8.987 2.81,10.564 2.2,12.147C1.896,12.936 1.939,13.677 2.325,14.289C2.585,14.699 2.996,14.975 3.514,15.09C3.692,15.13 3.879,15.148 4.07,15.148C4.708,15.148 5.402,14.936 6.014,14.542C6.255,14.387 6.58,14.312 6.924,14.234C6.973,14.223 7.025,14.21 7.076,14.198C8.575,15.772 8.748,16.712 8.697,17.417C8.697,17.419 8.698,17.421 8.698,17.423C8.517,18.673 8.737,19.663 9.103,20.516C9.098,20.544 9.086,20.569 9.086,20.599L9.086,27.867C9.086,28.142 9.308,28.366 9.584,28.367L13.41,28.385L13.412,28.385C13.424,28.385 13.434,28.379 13.445,28.378L14.334,28.385L14.338,28.385C14.47,28.385 14.597,28.333 14.69,28.239C14.785,28.145 14.838,28.017 14.838,27.885L14.838,23.515C14.839,22.688 14.966,22.003 15.112,21.357C15.574,21.503 15.99,21.561 16.369,21.561C16.471,21.561 16.557,21.54 16.654,21.533C17.886,22.905 18.561,24.654 18.554,26.474L18.547,27.883C18.546,28.016 18.599,28.143 18.692,28.237C18.786,28.332 18.914,28.385 19.047,28.385L21.064,28.385C21.093,28.385 21.117,28.373 21.144,28.369C21.171,28.373 21.197,28.385 21.224,28.385L23.555,28.385C23.831,28.385 24.055,28.161 24.055,27.885L24.055,22.929C24.423,23.61 24.805,24.066 25.104,24.415C25.2,24.526 25.34,24.59 25.484,24.59C25.506,24.59 25.528,24.589 25.551,24.586C25.718,24.563 25.863,24.457 25.935,24.305C27.144,21.761 26.831,18.787 26.194,17.014C25.814,15.954 25.282,15.154 24.672,14.672C25.081,14.279 25.398,13.819 25.659,13.219C25.722,13.19 25.792,13.169 25.853,13.138C27.174,12.473 28.044,10.616 28.279,10.062C28.342,9.915 28.321,9.749 28.238,9.613C28.93,8.883 29.489,7.716 29.961,6.606C30.036,6.431 30.004,6.226 29.878,6.083C29.752,5.936 29.552,5.879 29.37,5.929ZM24.651,6.749C23.839,7.663 22.67,8.176 21.384,8.579C21.683,7.798 21.533,7.263 21.36,6.965C21.344,6.937 21.316,6.918 21.298,6.891C22.744,6.314 24.178,5.684 25.575,4.991C25.412,5.64 25.094,6.253 24.651,6.749ZM21.478,11.788C21.365,12.113 21.032,12.411 20.672,12.347C20.19,12.215 19.689,12.029 19.18,11.811C19.238,11.725 19.302,11.633 19.357,11.551C19.604,11.183 19.827,10.863 20.044,10.569C20.386,10.683 20.732,10.775 21.084,10.846C21.629,11.149 21.544,11.604 21.478,11.788ZM20.538,14.336C20.467,14.507 20.183,15.055 19.443,14.918C18.871,14.759 18.193,14.533 17.352,14.245C17.83,13.686 18.242,13.15 18.6,12.646C19.167,12.899 19.738,13.106 20.308,13.268C20.661,13.524 20.678,13.996 20.538,14.336ZM13.988,10.599C13.532,11.173 13.164,11.71 12.915,12.154C12.347,11.79 11.83,11.31 11.289,10.798C10.678,10.219 10.039,9.627 9.246,9.104C9.297,9.122 9.351,9.137 9.408,9.137C11.981,9.137 13.05,9.825 13.988,10.599ZM10.852,23.68C10.967,23.972 11.088,24.636 11.195,25.365L10.086,25.366L10.086,22.284C10.387,22.76 10.67,23.214 10.852,23.68ZM10.086,26.366L11.331,26.365C11.377,26.733 11.416,27.077 11.448,27.375L10.086,27.369L10.086,26.366ZM12.454,27.37C12.426,27.107 12.387,26.754 12.339,26.365L13.838,26.364L13.838,27.381L12.454,27.37ZM15.329,20.375C15.434,19.893 15.522,19.415 15.522,18.912C15.522,18.636 15.299,18.412 15.022,18.412C14.746,18.412 14.522,18.636 14.522,18.912C14.522,19.488 14.391,20.046 14.238,20.691C14.052,21.484 13.84,22.384 13.838,23.514L13.838,25.364L12.207,25.365C12.086,24.53 11.939,23.711 11.783,23.314C11.557,22.736 11.216,22.198 10.887,21.679C10.163,20.534 9.414,19.351 9.69,17.528C9.691,17.522 9.689,17.516 9.689,17.51C9.69,17.503 9.695,17.497 9.695,17.489C9.754,16.669 9.597,15.522 8.093,13.828C8.613,13.537 9.088,13.034 9.323,12.045C9.388,11.776 9.221,11.507 8.952,11.443C8.685,11.376 8.414,11.545 8.35,11.814C8.082,12.944 7.503,13.076 6.701,13.259C6.288,13.353 5.86,13.45 5.472,13.702C4.903,14.068 4.234,14.229 3.729,14.113C3.474,14.058 3.286,13.936 3.171,13.755C2.954,13.411 2.942,13.003 3.134,12.507C3.673,11.105 5.546,9.705 6.354,9.478C6.37,9.474 6.381,9.463 6.395,9.458C6.427,9.446 6.455,9.43 6.485,9.412C6.513,9.394 6.539,9.374 6.562,9.351C6.574,9.34 6.588,9.335 6.599,9.323C6.762,9.133 6.939,8.938 7.121,8.739C7.457,8.37 7.801,7.993 8.107,7.595C8.465,8.266 8.408,8.883 7.943,9.535C7.783,9.76 7.836,10.072 8.06,10.232C8.148,10.295 8.25,10.325 8.35,10.325C8.507,10.325 8.66,10.252 8.758,10.115C8.779,10.085 8.798,10.05 8.819,10.019C9.488,10.479 10.056,11.007 10.601,11.523C11.227,12.116 11.825,12.673 12.539,13.1C12.372,13.86 12.526,14.66 13.358,15.156C13.438,15.204 13.526,15.226 13.614,15.226C13.784,15.226 13.95,15.14 14.044,14.982C14.185,14.745 14.107,14.438 13.87,14.297C13.239,13.921 13.503,13.178 13.718,12.766C14.697,10.892 17.844,7.595 19.723,7.223C20.056,7.158 20.374,7.256 20.495,7.465C20.665,7.76 20.541,8.425 19.682,9.408C19.625,9.472 19.57,9.554 19.515,9.622C19.494,9.642 19.478,9.668 19.461,9.692C19.16,10.071 18.862,10.496 18.528,10.992C17.896,11.932 17.18,12.995 16.12,14.138C16.119,14.138 16.119,14.14 16.118,14.141C16.096,14.165 16.083,14.197 16.066,14.226C16.048,14.255 16.026,14.281 16.015,14.313C16.015,14.314 16.014,14.314 16.014,14.315C16.008,14.331 16.011,14.347 16.007,14.362C15.996,14.41 15.986,14.457 15.988,14.505C15.99,14.534 16.001,14.56 16.008,14.588C16.016,14.623 16.02,14.658 16.035,14.69C16.054,14.73 16.084,14.763 16.113,14.797C16.125,14.812 16.132,14.83 16.146,14.844C16.147,14.844 16.148,14.845 16.149,14.846C16.17,14.865 16.198,14.875 16.223,14.891C16.256,14.912 16.287,14.937 16.323,14.949C16.323,14.95 16.324,14.95 16.324,14.95L16.655,15.063C17.689,15.418 18.519,15.702 19.234,15.897C19.236,15.897 19.238,15.899 19.24,15.899C19.242,15.9 19.244,15.899 19.247,15.9C19.936,16.087 20.52,16.191 21.073,16.191C21.656,16.191 22.207,16.073 22.816,15.823C22.906,15.962 22.988,16.106 23.053,16.259C23.659,17.689 23.39,19.413 23.193,20.672C23.115,21.166 23.055,21.556 23.055,21.866L23.055,25.366L21.678,25.366C21.511,23.49 20.893,21.949 19.82,20.783C19.341,20.262 18.811,19.633 18.524,18.919C18.422,18.662 18.132,18.54 17.874,18.641C17.618,18.744 17.493,19.036 17.597,19.292C17.732,19.629 17.912,19.937 18.105,20.23C17.967,20.263 17.828,20.297 17.694,20.333C16.975,20.523 16.291,20.703 15.329,20.375ZM17.794,21.336C17.845,21.323 17.901,21.312 17.951,21.299C18.238,21.223 18.511,21.158 18.784,21.122C18.885,21.238 18.985,21.354 19.084,21.461C19.998,22.455 20.504,23.751 20.66,25.366L19.475,25.366C19.283,23.905 18.71,22.517 17.794,21.336ZM19.549,26.366L20.723,26.366C20.724,26.405 20.731,26.437 20.73,26.475L20.727,27.385L19.549,27.385L19.554,26.479C19.554,26.441 19.549,26.404 19.549,26.366ZM21.726,27.385L21.73,26.479C21.731,26.441 21.727,26.405 21.727,26.366L23.055,26.366L23.055,27.385L21.726,27.385ZM25.253,17.351C25.762,18.768 26.043,21.033 25.341,23.112C24.946,22.563 24.53,21.788 24.223,20.55C24.421,19.258 24.643,17.448 23.973,15.868C23.9,15.696 23.813,15.532 23.716,15.373C23.756,15.351 23.79,15.327 23.828,15.304C24.363,15.593 24.891,16.342 25.253,17.351ZM23.073,14.598C22.993,14.64 22.917,14.678 22.84,14.716C22.796,14.728 22.757,14.752 22.717,14.777C22.168,15.037 21.697,15.17 21.186,15.188C21.293,15.047 21.389,14.893 21.462,14.718C21.622,14.33 21.661,13.927 21.59,13.556C22.122,13.643 22.645,13.703 23.143,13.703C23.541,13.703 23.918,13.666 24.283,13.61C23.986,14.002 23.619,14.308 23.073,14.598ZM25.403,12.245C24.664,12.619 23.511,12.786 22.146,12.628C22.257,12.476 22.355,12.31 22.422,12.12C22.555,11.74 22.558,11.366 22.455,11.026C22.689,11.04 22.923,11.053 23.153,11.053C24.359,11.053 25.496,10.864 26.4,10.597C26.424,10.595 26.447,10.601 26.471,10.597C26.644,10.559 26.804,10.527 26.952,10.5C26.538,11.24 25.991,11.949 25.403,12.245ZM27.072,9.277C25.873,9.881 23.223,10.372 20.872,9.773C22.072,9.437 23.221,9.051 24.197,8.422C25.465,8.39 26.555,7.987 27.702,7.553C27.991,7.443 28.285,7.331 28.586,7.224C28.191,8.033 27.633,8.995 27.072,9.277Z" fill-rule="nonzero"/>
</svg>
