<svg width="100%" height="100%" viewBox="0 0 32 32" xmlns="http://www.w3.org/2000/svg">
    <path d="M29.978,12.65C29.978,10.825 29.052,9.014 29.013,8.938C28.933,8.783 28.778,8.681 28.605,8.668C28.418,8.65 28.263,8.735 28.161,8.876L26.602,11.062C25.849,11.028 25.404,10.839 24.853,10.606C24.202,10.33 23.461,10.02 22.112,9.907C20.806,9.167 19.619,9.44 18.795,9.863C14.843,9.298 10.508,8.875 8.031,9.903C7.192,10.251 6.251,10.651 5.499,11.284C5.483,11.284 5.468,11.279 5.452,11.281C5.069,11.337 4.345,11.011 3.962,10.565C3.963,10.466 3.972,10.354 3.982,10.235C4.021,9.755 4.07,9.159 3.718,8.766C3.594,8.626 3.367,8.458 2.99,8.446C2.414,8.438 2.162,8.722 2.077,8.899C1.791,9.491 2.991,10.948 2.991,10.948C3.003,10.966 3.007,10.985 3.019,11.002C3.377,11.539 4.045,11.983 4.701,12.177C4.429,12.605 4.23,13.107 4.153,13.716C3.999,14.922 4.264,15.968 4.519,16.98C4.621,17.384 4.725,17.792 4.802,18.218C4.967,19.12 5.497,23.081 5.503,23.121C5.536,23.369 5.747,23.555 5.998,23.555L11.042,23.555C11.318,23.555 11.541,23.332 11.542,23.057C11.542,23.057 11.554,19.688 11.559,18.27C11.909,18.318 12.271,18.351 12.661,18.351C13.345,18.351 14.094,18.277 14.909,18.131C15.071,20.041 15.739,23.026 15.771,23.163C15.822,23.391 16.024,23.553 16.258,23.553L18.285,23.555L20.914,23.555C21.145,23.555 21.345,23.398 21.4,23.175C21.409,23.139 22.235,19.791 22.631,18.034C23.871,18.276 25.141,18.519 26.113,18.52L26.116,18.52C27.296,18.52 28.227,18.178 28.881,17.505C30.08,16.271 30.022,14.281 29.987,13.091C29.983,12.926 29.978,12.777 29.978,12.65ZM6.104,20.144C5.978,19.255 5.854,18.41 5.786,18.038C5.704,17.591 5.596,17.16 5.489,16.735C5.359,16.219 5.237,15.719 5.168,15.21C5.439,14.974 5.741,14.877 6.013,14.857C7.047,14.882 8.244,16.206 9.037,17.083C9.121,17.175 9.187,17.245 9.263,17.327C9.225,17.408 9.187,17.491 9.14,17.593C8.439,19.107 8.155,19.786 8.081,20.144L6.104,20.144ZM6.436,22.555C6.39,22.214 6.32,21.701 6.243,21.144L8.092,21.144C8.12,21.609 8.16,22.154 8.191,22.555L6.436,22.555ZM9.193,22.555C9.157,22.088 9.119,21.569 9.092,21.144L10.549,21.144C10.547,21.697 10.545,22.204 10.544,22.555L9.193,22.555ZM10.552,20.144L9.119,20.144C9.299,19.631 9.827,18.489 10.047,18.013C10.069,17.966 10.084,17.934 10.104,17.891C10.25,17.951 10.404,18.003 10.56,18.052C10.558,18.515 10.555,19.313 10.552,20.144ZM10.148,16.812C10.035,16.693 9.916,16.564 9.779,16.412C8.871,15.409 7.5,13.893 6.038,13.857C5.712,13.863 5.414,13.923 5.135,14.043C5.141,13.976 5.136,13.911 5.145,13.843C5.353,12.214 6.574,11.591 8.413,10.826C10.473,9.972 14.263,10.267 17.643,10.714C17.58,10.799 17.537,10.898 17.537,11.006C17.537,11.659 18.288,12.661 19.437,13.267C19.229,14.197 19.2,15.01 19.373,15.681C17.962,14.756 16.425,15.918 15.262,16.798L14.97,17.019C14.922,17.055 14.885,17.1 14.854,17.148C14.818,17.146 14.783,17.139 14.746,17.145C12.784,17.499 11.238,17.384 10.148,16.812ZM21.108,20.144L19.515,20.144C19.933,18.421 20.128,17.535 20.176,17.055C20.555,17.406 21.055,17.657 21.655,17.818C21.51,18.461 21.309,19.31 21.108,20.144ZM15.877,17.617C15.877,17.608 15.872,17.6 15.871,17.591C17.363,16.463 18.332,15.854 19.217,16.871C19.216,16.891 19.211,16.911 19.213,16.931C19.152,17.301 18.833,18.667 18.479,20.144L16.194,20.144C16.038,19.238 15.903,18.294 15.877,17.617ZM16.376,21.144L18.237,21.144C18.119,21.633 18.001,22.116 17.893,22.555L16.661,22.553C16.592,22.228 16.487,21.72 16.376,21.144ZM18.923,22.555C19.049,22.046 19.166,21.57 19.27,21.144L20.867,21.144C20.727,21.721 20.602,22.232 20.523,22.555L18.923,22.555ZM28.163,16.808C27.699,17.287 27.029,17.52 26.116,17.52L26.113,17.52C25.204,17.519 23.929,17.27 22.696,17.029L22.189,16.93C21.396,16.778 20.863,16.465 20.557,15.975C20.164,15.344 20.14,14.383 20.486,13.12C20.492,13.097 20.488,13.074 20.49,13.05C20.494,13.018 20.499,12.987 20.497,12.955C20.494,12.921 20.486,12.891 20.477,12.859C20.469,12.829 20.462,12.801 20.448,12.773C20.434,12.743 20.414,12.717 20.394,12.69C20.375,12.666 20.358,12.643 20.336,12.622C20.309,12.598 20.279,12.581 20.248,12.563C20.229,12.552 20.216,12.536 20.196,12.528C19.292,12.15 18.767,11.507 18.598,11.176C19.114,10.757 20.342,9.99 21.708,10.824C21.715,10.827 21.722,10.827 21.729,10.831C21.752,10.844 21.779,10.85 21.805,10.859C21.843,10.872 21.879,10.887 21.918,10.891C21.923,10.891 21.928,10.894 21.933,10.895C23.188,10.987 23.836,11.261 24.463,11.527C25.119,11.805 25.741,12.068 26.855,12.068C27.016,12.068 27.168,11.99 27.262,11.859L28.46,10.179C28.7,10.813 28.978,11.744 28.978,12.65C28.978,12.785 28.983,12.944 28.988,13.12C29.018,14.152 29.069,15.877 28.163,16.808Z" fill-rule="nonzero"/>
    <path d="M23.748,12.848C23.414,12.848 23.142,13.12 23.142,13.455C23.142,13.79 23.414,14.063 23.748,14.063C24.083,14.063 24.356,13.79 24.356,13.455C24.356,13.12 24.083,12.848 23.748,12.848Z" fill-rule="nonzero"/>
</svg>
