<svg width="100%" height="100%" viewBox="0 0 32 32" xmlns="http://www.w3.org/2000/svg">
    <path d="M26.727,2.965C26.466,2.966 26.252,3.181 26.251,3.442L26.251,4.952C26.252,5.213 26.466,5.427 26.727,5.428C26.727,5.428 26.728,5.428 26.728,5.428C26.99,5.428 27.205,5.213 27.206,4.952L27.206,3.442C27.205,3.18 26.99,2.965 26.728,2.965C26.728,2.965 26.727,2.965 26.727,2.965ZM17.205,4.943C17.016,4.943 16.874,5.032 16.787,5.11C16.699,5.188 16.645,5.267 16.595,5.348C16.494,5.512 16.417,5.695 16.338,5.908C16.181,6.333 16.032,6.868 15.887,7.413C15.742,7.958 15.603,8.511 15.48,8.939C15.419,9.153 15.362,9.336 15.314,9.464C15.295,9.514 15.273,9.553 15.256,9.582C15.227,9.599 15.187,9.621 15.138,9.64C15.011,9.688 14.827,9.745 14.613,9.806C14.185,9.928 13.634,10.068 13.09,10.213C12.545,10.358 12.007,10.507 11.582,10.664C11.369,10.743 11.186,10.82 11.023,10.92C10.941,10.971 10.865,11.025 10.787,11.112C10.709,11.2 10.618,11.342 10.618,11.531C10.618,11.72 10.709,11.862 10.787,11.949C10.865,12.037 10.941,12.091 11.023,12.141C11.186,12.242 11.369,12.32 11.582,12.399C12.007,12.556 12.545,12.704 13.09,12.849C13.634,12.993 14.185,13.133 14.613,13.256C14.827,13.317 15.011,13.375 15.138,13.423C15.187,13.441 15.227,13.462 15.257,13.479C15.273,13.508 15.295,13.548 15.314,13.598C15.362,13.725 15.419,13.909 15.48,14.123C15.603,14.551 15.742,15.102 15.887,15.647C16.032,16.192 16.181,16.727 16.338,17.152C16.417,17.365 16.494,17.548 16.595,17.712C16.645,17.793 16.699,17.872 16.787,17.95C16.874,18.028 17.016,18.119 17.205,18.119C17.394,18.119 17.536,18.028 17.623,17.95C17.711,17.872 17.765,17.793 17.815,17.712C17.916,17.548 17.994,17.365 18.073,17.152C18.23,16.727 18.378,16.192 18.523,15.647C18.668,15.102 18.807,14.551 18.93,14.123C18.991,13.909 19.049,13.725 19.097,13.598C19.116,13.548 19.137,13.509 19.154,13.48C19.183,13.463 19.222,13.441 19.272,13.423C19.399,13.375 19.583,13.317 19.797,13.256C20.224,13.133 20.775,12.993 21.32,12.849C21.865,12.704 22.403,12.556 22.828,12.399C23.041,12.32 23.224,12.242 23.387,12.141C23.469,12.091 23.546,12.037 23.624,11.949C23.702,11.862 23.793,11.72 23.793,11.531C23.793,11.342 23.702,11.2 23.624,11.112C23.546,11.025 23.469,10.971 23.387,10.92C23.224,10.82 23.041,10.743 22.828,10.664C22.403,10.507 21.865,10.358 21.32,10.213C20.775,10.068 20.224,9.928 19.797,9.806C19.583,9.745 19.399,9.688 19.272,9.64C19.222,9.621 19.183,9.599 19.154,9.582C19.137,9.553 19.115,9.514 19.097,9.464C19.049,9.336 18.991,9.153 18.93,8.939C18.807,8.511 18.668,7.958 18.523,7.413C18.378,6.868 18.23,6.333 18.073,5.908C17.994,5.695 17.916,5.512 17.815,5.348C17.765,5.267 17.711,5.188 17.623,5.11C17.536,5.032 17.394,4.943 17.205,4.943L17.205,4.943ZM6.29,5.431C6.03,5.432 5.816,5.646 5.815,5.907L5.815,7.418C5.814,7.68 6.028,7.896 6.29,7.897C6.291,7.897 6.291,7.897 6.292,7.897C6.554,7.897 6.769,7.682 6.769,7.42C6.769,7.42 6.769,5.907 6.769,5.907C6.768,5.646 6.553,5.431 6.292,5.431C6.291,5.431 6.291,5.431 6.29,5.431ZM25.606,5.597C25.606,5.597 24.094,5.597 24.094,5.597C23.832,5.597 23.617,5.813 23.617,6.074C23.617,6.075 23.617,6.076 23.617,6.076C23.618,6.337 23.833,6.552 24.094,6.552C24.094,6.552 25.606,6.552 25.606,6.552C25.867,6.551 26.081,6.337 26.082,6.076C26.082,6.076 26.082,6.075 26.082,6.074C26.082,5.813 25.867,5.598 25.606,5.597ZM27.85,5.597C27.589,5.598 27.375,5.813 27.375,6.074C27.375,6.075 27.375,6.076 27.375,6.076C27.376,6.337 27.59,6.551 27.85,6.552L29.361,6.552C29.622,6.551 29.835,6.337 29.836,6.076C29.836,6.076 29.836,6.075 29.836,6.074C29.836,5.813 29.622,5.598 29.361,5.597L27.85,5.597ZM17.205,6.331C17.332,6.688 17.467,7.156 17.6,7.658C17.743,8.194 17.882,8.747 18.012,9.2C18.077,9.427 18.14,9.629 18.204,9.799C18.268,9.969 18.289,10.092 18.465,10.268C18.641,10.445 18.767,10.468 18.937,10.532C19.107,10.596 19.307,10.659 19.534,10.724C19.987,10.854 20.539,10.99 21.075,11.133C21.577,11.266 22.047,11.404 22.405,11.531C22.047,11.658 21.577,11.793 21.075,11.926C20.539,12.069 19.987,12.208 19.534,12.338C19.307,12.403 19.108,12.464 18.937,12.528C18.767,12.592 18.641,12.614 18.465,12.791C18.289,12.967 18.268,13.093 18.204,13.263C18.14,13.433 18.077,13.633 18.012,13.86C17.882,14.313 17.743,14.866 17.6,15.402C17.467,15.904 17.332,16.371 17.205,16.729C17.078,16.371 16.943,15.904 16.81,15.402C16.667,14.866 16.528,14.313 16.398,13.86C16.333,13.633 16.27,13.433 16.206,13.263C16.142,13.093 16.121,12.967 15.945,12.791C15.769,12.614 15.644,12.592 15.473,12.528C15.303,12.464 15.103,12.403 14.877,12.338C14.424,12.208 13.871,12.069 13.335,11.926C12.833,11.793 12.363,11.658 12.005,11.531C12.363,11.404 12.833,11.266 13.335,11.133C13.871,10.99 14.424,10.854 14.877,10.724C15.103,10.659 15.303,10.596 15.473,10.532C15.643,10.468 15.769,10.445 15.945,10.268C16.121,10.092 16.142,9.969 16.206,9.799C16.27,9.629 16.333,9.427 16.398,9.2C16.528,8.747 16.667,8.194 16.81,7.658C16.943,7.156 17.078,6.688 17.205,6.331ZM26.727,6.72C26.466,6.721 26.252,6.936 26.251,7.196C26.251,7.196 26.251,8.708 26.251,8.709C26.251,8.97 26.466,9.185 26.727,9.186C26.727,9.186 26.728,9.186 26.728,9.186C26.99,9.186 27.206,8.971 27.206,8.709C27.206,8.708 27.206,7.196 27.206,7.196C27.205,6.935 26.99,6.72 26.728,6.72C26.728,6.72 26.727,6.72 26.727,6.72ZM5.17,8.062C5.17,8.062 3.658,8.062 3.657,8.062C3.396,8.062 3.18,8.278 3.18,8.539C3.18,8.54 3.18,8.541 3.18,8.541C3.181,8.803 3.396,9.017 3.657,9.017C3.658,9.017 5.17,9.017 5.17,9.017C5.431,9.017 5.646,8.802 5.646,8.541C5.646,8.541 5.646,8.54 5.646,8.539C5.646,8.278 5.431,8.063 5.17,8.062ZM8.925,8.062C8.925,8.062 7.413,8.062 7.412,8.062C7.15,8.062 6.935,8.278 6.935,8.539C6.935,8.54 6.935,8.541 6.935,8.541C6.936,8.803 7.151,9.017 7.412,9.017C7.413,9.017 8.925,9.017 8.925,9.017C9.186,9.017 9.4,8.802 9.401,8.541C9.401,8.541 9.401,8.54 9.401,8.539C9.401,8.278 9.186,8.063 8.925,8.062ZM6.29,9.186C6.03,9.187 5.816,9.401 5.815,9.661L5.815,11.173C5.814,11.435 6.028,11.651 6.29,11.652C6.291,11.652 6.291,11.652 6.292,11.652C6.554,11.652 6.769,11.437 6.769,11.175C6.769,11.174 6.769,9.661 6.769,9.661C6.768,9.4 6.553,9.186 6.292,9.186C6.291,9.186 6.291,9.186 6.29,9.186ZM7.387,15.218C7.205,15.218 7.072,15.302 6.992,15.373C6.912,15.444 6.864,15.513 6.821,15.582C6.736,15.72 6.675,15.866 6.613,16.035C6.488,16.372 6.373,16.791 6.26,17.215C6.148,17.639 6.039,18.067 5.944,18.396C5.897,18.561 5.854,18.703 5.818,18.797C5.811,18.816 5.804,18.831 5.795,18.847C5.779,18.855 5.762,18.864 5.743,18.871C5.649,18.906 5.509,18.951 5.344,18.999C5.015,19.093 4.587,19.2 4.163,19.313C3.738,19.425 3.32,19.542 2.983,19.667C2.814,19.729 2.666,19.79 2.528,19.875C2.459,19.917 2.391,19.965 2.32,20.045C2.249,20.125 2.164,20.259 2.164,20.441C2.164,20.623 2.249,20.756 2.32,20.836C2.391,20.916 2.459,20.962 2.528,21.005C2.666,21.09 2.814,21.15 2.983,21.213C3.32,21.337 3.738,21.454 4.163,21.567C4.587,21.68 5.015,21.788 5.344,21.883C5.509,21.93 5.649,21.973 5.743,22.009C5.763,22.016 5.779,22.025 5.795,22.033C5.804,22.048 5.811,22.064 5.818,22.082C5.854,22.177 5.897,22.318 5.944,22.483C6.039,22.813 6.148,23.241 6.26,23.665C6.373,24.089 6.488,24.507 6.613,24.845C6.675,25.013 6.736,25.16 6.821,25.297C6.864,25.366 6.912,25.435 6.992,25.506C7.072,25.577 7.205,25.664 7.387,25.664C7.569,25.664 7.702,25.577 7.782,25.506C7.862,25.435 7.91,25.366 7.953,25.297C8.038,25.16 8.098,25.013 8.161,24.845C8.285,24.507 8.4,24.089 8.513,23.665C8.626,23.241 8.734,22.813 8.829,22.483C8.876,22.318 8.919,22.177 8.955,22.082C8.962,22.064 8.969,22.048 8.978,22.033C8.994,22.025 9.011,22.016 9.03,22.009C9.125,21.973 9.264,21.93 9.429,21.883C9.759,21.788 10.187,21.68 10.611,21.567C11.035,21.454 11.453,21.337 11.791,21.213C11.959,21.151 12.108,21.09 12.245,21.005C12.314,20.962 12.383,20.916 12.454,20.836C12.525,20.756 12.61,20.623 12.61,20.441C12.61,20.259 12.525,20.125 12.454,20.045C12.383,19.965 12.314,19.917 12.245,19.875C12.108,19.79 11.959,19.729 11.791,19.667C11.453,19.542 11.035,19.425 10.611,19.313C10.187,19.2 9.759,19.093 9.429,18.999C9.264,18.951 9.124,18.906 9.03,18.871C9.011,18.864 8.994,18.855 8.978,18.847C8.969,18.831 8.962,18.816 8.955,18.797C8.919,18.703 8.876,18.561 8.829,18.396C8.734,18.067 8.626,17.639 8.513,17.215C8.4,16.791 8.285,16.372 8.161,16.035C8.098,15.866 8.038,15.72 7.953,15.582C7.91,15.513 7.862,15.444 7.782,15.373C7.702,15.302 7.569,15.218 7.387,15.218ZM24.933,16.125C24.758,16.125 24.631,16.208 24.558,16.273C24.485,16.337 24.446,16.397 24.411,16.454C24.34,16.568 24.294,16.682 24.247,16.809C24.152,17.065 24.067,17.372 23.984,17.684C23.901,17.995 23.823,18.309 23.755,18.547C23.722,18.659 23.693,18.75 23.67,18.814C23.606,18.837 23.515,18.866 23.402,18.898C23.165,18.966 22.852,19.045 22.54,19.128C22.229,19.211 21.92,19.297 21.665,19.391C21.538,19.438 21.424,19.484 21.31,19.554C21.253,19.589 21.195,19.629 21.13,19.702C21.066,19.775 20.983,19.902 20.983,20.077C20.983,20.252 21.066,20.379 21.13,20.451C21.195,20.524 21.253,20.563 21.31,20.599C21.424,20.669 21.538,20.716 21.665,20.763C21.92,20.857 22.229,20.942 22.54,21.025C22.852,21.107 23.165,21.187 23.402,21.255C23.515,21.287 23.606,21.315 23.67,21.339C23.693,21.402 23.722,21.494 23.755,21.607C23.823,21.845 23.901,22.157 23.984,22.469C24.067,22.781 24.153,23.09 24.247,23.345C24.294,23.473 24.34,23.585 24.411,23.699C24.446,23.756 24.485,23.815 24.558,23.88C24.631,23.945 24.758,24.027 24.933,24.027C25.108,24.027 25.234,23.945 25.307,23.88C25.38,23.815 25.419,23.756 25.454,23.699C25.525,23.585 25.571,23.473 25.618,23.345C25.713,23.09 25.798,22.781 25.881,22.469C25.964,22.157 26.042,21.845 26.111,21.607C26.143,21.494 26.173,21.402 26.196,21.339C26.26,21.315 26.35,21.287 26.463,21.255C26.701,21.187 27.013,21.107 27.325,21.025C27.636,20.942 27.945,20.857 28.2,20.763C28.328,20.716 28.441,20.669 28.555,20.599C28.612,20.563 28.67,20.524 28.735,20.451C28.8,20.379 28.882,20.252 28.882,20.077C28.882,19.902 28.8,19.775 28.735,19.702C28.67,19.629 28.612,19.589 28.555,19.554C28.441,19.484 28.327,19.438 28.2,19.391C27.945,19.297 27.636,19.211 27.325,19.128C27.013,19.045 26.701,18.966 26.463,18.898C26.35,18.866 26.26,18.837 26.196,18.814C26.173,18.75 26.143,18.659 26.111,18.547C26.042,18.309 25.964,17.995 25.881,17.684C25.799,17.372 25.713,17.065 25.618,16.809C25.571,16.682 25.525,16.568 25.454,16.454C25.419,16.397 25.38,16.337 25.307,16.273C25.235,16.208 25.108,16.125 24.933,16.125ZM7.387,16.777C7.455,16.999 7.522,17.201 7.591,17.461C7.702,17.877 7.809,18.306 7.911,18.66C7.961,18.837 8.01,18.996 8.062,19.133C8.113,19.27 8.126,19.369 8.292,19.535C8.458,19.701 8.558,19.714 8.694,19.765C8.831,19.817 8.99,19.866 9.167,19.916C9.522,20.018 9.951,20.126 10.366,20.236C10.628,20.306 10.831,20.372 11.054,20.44C10.831,20.509 10.628,20.576 10.366,20.645C9.951,20.756 9.522,20.863 9.167,20.965C8.99,21.016 8.831,21.065 8.694,21.116C8.558,21.167 8.458,21.178 8.292,21.344C8.126,21.51 8.113,21.612 8.062,21.749C8.01,21.886 7.961,22.043 7.911,22.22C7.809,22.575 7.702,23.005 7.591,23.421C7.522,23.681 7.455,23.883 7.387,24.105C7.319,23.883 7.251,23.681 7.182,23.421C7.071,23.005 6.964,22.575 6.862,22.22C6.811,22.043 6.763,21.886 6.711,21.749C6.66,21.612 6.647,21.51 6.481,21.344C6.315,21.178 6.216,21.167 6.08,21.116C5.943,21.065 5.784,21.016 5.607,20.965C5.253,20.863 4.822,20.756 4.407,20.645C4.145,20.576 3.942,20.509 3.719,20.44C3.942,20.372 4.145,20.306 4.407,20.236C4.822,20.126 5.253,20.018 5.607,19.916C5.784,19.866 5.943,19.817 6.08,19.765C6.216,19.714 6.315,19.701 6.481,19.535C6.647,19.369 6.66,19.27 6.711,19.133C6.763,18.996 6.812,18.837 6.862,18.66C6.964,18.306 7.072,17.877 7.182,17.461C7.251,17.201 7.319,16.999 7.387,16.777ZM24.933,17.841C24.942,17.874 24.949,17.895 24.959,17.929C25.039,18.232 25.117,18.546 25.193,18.809C25.23,18.941 25.268,19.058 25.307,19.164C25.347,19.27 25.349,19.349 25.505,19.505C25.661,19.662 25.739,19.662 25.845,19.702C25.951,19.742 26.069,19.777 26.2,19.815C26.463,19.89 26.778,19.97 27.081,20.051C27.115,20.06 27.135,20.068 27.168,20.077C27.135,20.086 27.115,20.094 27.081,20.103C26.778,20.183 26.463,20.261 26.2,20.337C26.069,20.374 25.951,20.412 25.845,20.451C25.739,20.491 25.661,20.491 25.505,20.647C25.349,20.803 25.347,20.883 25.307,20.989C25.268,21.095 25.23,21.213 25.193,21.344C25.117,21.607 25.039,21.922 24.959,22.225C24.95,22.259 24.943,22.279 24.933,22.312C24.924,22.279 24.916,22.259 24.906,22.225C24.826,21.922 24.748,21.607 24.673,21.344C24.635,21.213 24.598,21.095 24.558,20.989C24.518,20.883 24.517,20.803 24.361,20.647C24.205,20.491 24.126,20.491 24.02,20.451C23.914,20.412 23.796,20.374 23.665,20.337C23.402,20.261 23.088,20.183 22.784,20.103C22.75,20.094 22.73,20.086 22.697,20.077C22.73,20.068 22.75,20.06 22.784,20.051C23.088,19.97 23.402,19.89 23.665,19.815C23.797,19.777 23.914,19.742 24.02,19.702C24.126,19.662 24.205,19.662 24.361,19.505C24.518,19.349 24.518,19.27 24.558,19.164C24.598,19.058 24.635,18.941 24.673,18.809C24.748,18.546 24.826,18.232 24.906,17.929C24.915,17.895 24.923,17.874 24.933,17.841ZM15.219,22.814C15.218,22.814 15.218,22.814 15.217,22.814C14.956,22.814 14.741,23.028 14.74,23.289C14.74,23.289 14.74,24.802 14.74,24.803C14.74,25.064 14.955,25.28 15.217,25.28C15.218,25.28 15.218,25.28 15.219,25.28C15.48,25.279 15.695,25.064 15.695,24.803C15.695,24.802 15.695,23.289 15.695,23.289C15.694,23.028 15.48,22.814 15.219,22.814ZM12.584,25.445C12.323,25.446 12.108,25.662 12.109,25.924C12.11,26.184 12.324,26.399 12.584,26.4L14.096,26.4C14.357,26.399 14.571,26.184 14.571,25.924C14.571,25.923 14.571,25.922 14.571,25.922C14.571,25.661 14.357,25.446 14.096,25.445L12.584,25.445ZM16.339,25.445C16.077,25.446 15.863,25.662 15.864,25.924C15.864,26.184 16.078,26.399 16.339,26.4C16.339,26.4 17.852,26.4 17.853,26.4C18.114,26.4 18.329,26.185 18.33,25.924C18.33,25.923 18.33,25.922 18.33,25.922C18.33,25.66 18.114,25.445 17.853,25.445C17.852,25.445 16.339,25.445 16.339,25.445ZM15.219,26.569C15.218,26.569 15.218,26.569 15.217,26.569C14.956,26.569 14.741,26.783 14.74,27.044C14.74,27.044 14.74,28.557 14.74,28.557C14.74,28.819 14.955,29.035 15.217,29.035C15.218,29.035 15.218,29.035 15.219,29.035C15.48,29.034 15.695,28.819 15.695,28.557C15.695,28.557 15.695,27.044 15.695,27.044C15.694,26.783 15.48,26.569 15.219,26.569Z" fill-rule="nonzero"/>
</svg>
