<svg width="100%" height="100%" viewBox="0 0 32 32" xmlns="http://www.w3.org/2000/svg">
    <path d="M25.436,13.076C24.055,12.021 22.14,11.759 20.675,12.307C20.671,12.308 20.667,12.307 20.663,12.308C20.312,12.411 19.777,12.397 19.09,12.276L20.664,10.898C20.814,10.766 20.871,10.558 20.809,10.367C20.747,10.177 20.577,10.042 20.377,10.024C18.421,9.853 17.568,9.13 16.58,8.292C15.349,7.249 13.956,6.066 10.306,6.066C10.243,6.066 10.183,6.081 10.127,6.102C10.074,5.483 9.821,4.798 9.212,4.059C9.109,3.935 8.953,3.863 8.792,3.879C8.629,3.891 8.484,3.979 8.4,4.118L8.192,4.459C7.715,5.246 7.178,6.125 6.635,6.786C6.552,6.805 6.475,6.813 6.386,6.844L3.554,3.206C3.543,3.191 3.527,3.185 3.514,3.172C3.49,3.147 3.466,3.124 3.438,3.105C3.411,3.087 3.384,3.072 3.354,3.06C3.325,3.047 3.297,3.038 3.267,3.031C3.234,3.024 3.203,3.02 3.169,3.019C3.139,3.019 3.11,3.021 3.079,3.026C3.045,3.031 3.013,3.041 2.981,3.054C2.964,3.06 2.946,3.06 2.93,3.068C2.916,3.076 2.907,3.089 2.893,3.098C2.88,3.106 2.865,3.108 2.853,3.118C2.839,3.129 2.832,3.144 2.82,3.156C2.794,3.181 2.771,3.207 2.751,3.236C2.734,3.262 2.72,3.287 2.708,3.315C2.695,3.345 2.685,3.375 2.678,3.407C2.671,3.438 2.668,3.468 2.667,3.501C2.666,3.532 2.668,3.562 2.673,3.594C2.679,3.627 2.688,3.658 2.7,3.69C2.707,3.707 2.707,3.725 2.715,3.742L4.797,7.78C3.806,8.547 2.831,9.607 2.359,10.567C1.779,11.748 2.009,12.528 2.305,12.974C2.738,13.628 3.451,13.908 4.224,13.908C4.957,13.908 5.745,13.656 6.402,13.232C6.687,13.049 7.063,12.964 7.46,12.873C7.53,12.857 7.602,12.839 7.673,12.822C9.425,14.652 9.625,15.747 9.566,16.571C9.566,16.573 9.567,16.575 9.567,16.577C9.36,17.994 9.612,19.116 10.029,20.083C10.022,20.117 10.008,20.15 10.008,20.186L10.008,28.465C10.008,28.74 10.231,28.964 10.505,28.965L14.857,28.987L14.86,28.987C14.865,28.987 14.869,28.985 14.874,28.984L15.153,28.987L15.158,28.987C15.29,28.987 15.416,28.935 15.509,28.843C15.604,28.749 15.658,28.621 15.658,28.488L15.663,23.508C15.664,22.527 15.819,21.721 15.994,20.959C16.574,21.144 17.134,21.214 17.666,21.214C18.191,21.214 18.688,21.145 19.155,21.059L19.212,21.122C20.672,22.709 21.471,24.754 21.462,26.88L21.455,28.482C21.454,28.615 21.506,28.743 21.6,28.838C21.694,28.933 21.822,28.985 21.955,28.985L26.416,28.985C26.692,28.985 26.916,28.762 26.916,28.485L26.916,22.561C27.369,23.47 27.857,24.049 28.232,24.488C28.328,24.6 28.467,24.664 28.613,24.664C28.634,24.664 28.657,24.663 28.678,24.66C28.846,24.638 28.992,24.532 29.064,24.379C30.84,20.642 29.882,15.554 27.872,13.668C27.113,12.956 26.258,12.753 25.436,13.076ZM15.933,9.055C16.778,9.77 17.645,10.506 19.196,10.854L17.896,11.993C16.939,11.729 15.814,11.336 14.544,10.81C13.776,10.38 13.107,9.748 12.4,9.077C11.694,8.407 10.955,7.723 10.033,7.122C10.044,7.081 10.06,7.042 10.07,6.999C10.141,7.038 10.219,7.066 10.306,7.066C13.588,7.066 14.727,8.032 15.933,9.055ZM11.085,21.988C11.45,22.563 11.794,23.107 12.015,23.671C12.144,23.998 12.24,24.789 12.308,25.685L11.008,25.685L11.008,21.865C11.034,21.905 11.06,21.948 11.085,21.988ZM11.008,26.685L12.37,26.685C12.393,27.135 12.41,27.575 12.42,27.975L11.008,27.968L11.008,26.685ZM14.659,27.982L13.42,27.97C13.412,27.642 13.397,27.185 13.373,26.685L14.66,26.685L14.659,27.982ZM16.221,19.974C16.345,19.409 16.442,18.854 16.442,18.267C16.442,17.991 16.218,17.767 15.942,17.767C15.666,17.767 15.442,17.991 15.442,18.267C15.442,18.932 15.292,19.569 15.117,20.309C14.905,21.209 14.665,22.228 14.663,23.507L14.661,25.685L13.312,25.685C13.241,24.72 13.128,23.767 12.947,23.306C12.69,22.653 12.321,22.07 11.93,21.453C11.099,20.14 10.24,18.781 10.559,16.682C10.56,16.675 10.558,16.669 10.558,16.663C10.559,16.655 10.563,16.649 10.564,16.641C10.63,15.712 10.445,14.407 8.702,12.465C9.313,12.15 9.866,11.59 10.142,10.433C10.207,10.164 10.041,9.893 9.772,9.83C9.499,9.761 9.233,9.933 9.169,10.2C8.853,11.53 8.14,11.692 7.239,11.897C6.774,12.004 6.293,12.113 5.861,12.392C4.82,13.062 3.572,13.076 3.139,12.422C2.919,12.09 2.959,11.614 3.256,11.009C4.017,9.459 6.183,7.782 6.96,7.725C6.983,7.724 7.001,7.712 7.023,7.708C7.066,7.699 7.109,7.693 7.148,7.673C7.208,7.643 7.26,7.602 7.303,7.553C7.303,7.552 7.304,7.552 7.304,7.552C7.856,6.908 8.38,6.074 8.855,5.295C9.3,6.101 9.245,6.855 8.694,7.629C8.534,7.853 8.586,8.166 8.811,8.326C8.899,8.389 9.001,8.419 9.101,8.419C9.257,8.419 9.411,8.346 9.508,8.209C9.545,8.157 9.578,8.098 9.614,8.043C10.406,8.579 11.072,9.197 11.712,9.803C12.472,10.523 13.19,11.204 14.078,11.696C14.085,11.7 14.094,11.699 14.101,11.702C14.111,11.707 14.118,11.716 14.128,11.721C15.264,12.191 16.583,12.68 17.809,13.004C17.823,13.01 17.839,13.011 17.853,13.016C18.677,13.231 19.457,13.371 20.104,13.371C20.418,13.371 20.701,13.339 20.944,13.267C20.951,13.265 20.956,13.26 20.962,13.258C20.97,13.255 20.977,13.257 20.985,13.254C22.644,12.605 25.098,13.31 25.908,15.219C26.606,16.866 26.297,18.841 26.072,20.282C25.988,20.819 25.916,21.283 25.916,21.631L25.916,25.685L24.544,25.685C24.303,23.746 23.466,21.917 22.112,20.444C21.561,19.847 20.954,19.124 20.623,18.301C20.52,18.044 20.23,17.921 19.972,18.023C19.716,18.127 19.591,18.418 19.695,18.674C19.858,19.079 20.078,19.45 20.315,19.801C20.125,19.838 19.934,19.878 19.736,19.921C18.676,20.151 17.486,20.403 16.221,19.974ZM20.272,20.831C20.533,20.776 20.78,20.733 21.008,20.707C21.131,20.849 21.255,20.991 21.376,21.122C22.559,22.408 23.299,23.997 23.536,25.685L22.381,25.685C22.16,23.91 21.433,22.233 20.272,20.831ZM22.454,26.685L23.617,26.685C23.618,26.75 23.626,26.815 23.626,26.88L23.621,27.985L22.457,27.985L22.462,26.884C22.463,26.817 22.455,26.752 22.454,26.685ZM24.621,27.985L24.626,26.884C24.626,26.817 24.618,26.752 24.617,26.685L25.916,26.685L25.916,27.985L24.621,27.985ZM28.473,23.198C27.995,22.557 27.478,21.651 27.105,20.141C27.33,18.676 27.587,16.618 26.828,14.828C26.689,14.502 26.513,14.207 26.313,13.938C26.559,13.967 26.853,14.084 27.188,14.397C28.602,15.724 29.708,19.751 28.473,23.198Z" fill-rule="nonzero"/>
    <path d="M6.797,9.042C6.521,9.042 6.281,9.282 6.281,9.558C6.281,9.835 6.521,10.075 6.797,10.075C7.074,10.075 7.315,9.835 7.315,9.558C7.315,9.282 7.074,9.042 6.797,9.042Z" fill-rule="nonzero"/>
</svg>
